<?xml version="1.0" encoding="UTF-8" standalone="no"?><!DOCTYPE svg PUBLIC "-//W3C//DTD SVG 1.1//EN" "http://www.w3.org/Graphics/SVG/1.1/DTD/svg11.dtd"><svg width="100%" height="100%" viewBox="0 0 100 100" version="1.1" xmlns="http://www.w3.org/2000/svg" xmlns:xlink="http://www.w3.org/1999/xlink" xml:space="preserve" xmlns:serif="http://www.serif.com/" style="fill-rule:evenodd;clip-rule:evenodd;stroke-linejoin:round;stroke-miterlimit:2;"><path d="M37.488,58.271c0.041,4.6 -3.667,8.367 -8.275,8.396c-4.605,0.037 -8.355,-3.667 -8.38,-8.267c-0.041,-4.604 3.663,-8.354 8.259,-8.4c4.608,-0.029 8.371,3.679 8.396,8.271Zm-4.075,-16.609c-4.6,0.034 -8.367,-3.666 -8.396,-8.279c-0.038,-4.596 3.654,-8.35 8.266,-8.379c4.592,-0.042 8.367,3.654 8.384,8.258c0.05,4.613 -3.667,8.359 -8.254,8.4Zm33.254,-16.725c0.016,4.592 -3.671,8.367 -8.271,8.396c-4.608,0.042 -8.367,-3.662 -8.396,-8.262c-0.046,-4.609 3.658,-8.359 8.271,-8.396c4.587,-0.025 8.354,3.671 8.396,8.262Zm-50,66.03c19.112,1.583 12.266,-18.717 29.95,-18.905l7.658,6.392c1.908,23.071 -26.313,28.217 -37.608,12.513Zm58.604,-29.646c5.946,-9.329 24.358,-40.617 24.358,-40.617c1.471,-2.596 -1.787,-5.304 -4.062,-3.387c-0,-0 -27.384,23.808 -35.463,31.354c-6.383,5.966 -6.412,8.691 -8.479,18.529l7,5.833c9.279,-3.812 11.95,-4.333 16.646,-11.712Zm-52.592,20.025c-8.683,-7.584 -14.25,-18.663 -14.346,-31.029c-0.183,-22.959 18.359,-41.792 41.334,-41.98c15.991,-0.087 26.995,7.938 27.066,14.363l6.929,-6.067c-4.208,-9.262 -17.425,-16.854 -34.066,-16.633c-27.596,0.229 -49.813,22.775 -49.596,50.383c0.096,12.134 4.512,23.209 11.762,31.813c3.992,2.05 8.846,1.371 10.917,-0.85Zm53.321,-7.942c4.412,8.208 -5.629,14.042 -14.771,16.633c-1.267,3.8 -3.346,7.171 -5.725,9.63c21.896,-2.463 37.754,-17.934 26.108,-32.871c-1.912,2.854 -3.737,4.987 -5.612,6.608Z" style="fill:#bebebe;fill-rule:nonzero;"/></svg>