<?xml version="1.0" encoding="UTF-8" standalone="no"?><!DOCTYPE svg PUBLIC "-//W3C//DTD SVG 1.1//EN" "http://www.w3.org/Graphics/SVG/1.1/DTD/svg11.dtd"><svg width="100%" height="100%" viewBox="0 0 100 100" version="1.1" xmlns="http://www.w3.org/2000/svg" xmlns:xlink="http://www.w3.org/1999/xlink" xml:space="preserve" xmlns:serif="http://www.serif.com/" style="fill-rule:evenodd;clip-rule:evenodd;stroke-linejoin:round;stroke-miterlimit:2;"><path d="M20.833,35.417c0,-3.45 2.8,-6.25 6.25,-6.25c3.45,-0 6.25,2.8 6.25,6.25c0,3.454 -2.8,6.25 -6.25,6.25c-3.45,-0 -6.25,-2.796 -6.25,-6.25Zm37.5,2.083l-10.495,16.667l-10.338,-8.167l-16.667,24.833l58.334,0l-20.834,-33.333Zm33.334,-16.667l-0,58.334l-83.334,-0l0,-58.334l83.334,0Zm8.333,-8.333l-100,0l0,75l100,0l0,-75Z" style="fill:#bebebe;fill-rule:nonzero;"/></svg>