<?xml version="1.0" encoding="UTF-8" standalone="no"?><!DOCTYPE svg PUBLIC "-//W3C//DTD SVG 1.1//EN" "http://www.w3.org/Graphics/SVG/1.1/DTD/svg11.dtd"><svg width="100%" height="100%" viewBox="0 0 100 100" version="1.1" xmlns="http://www.w3.org/2000/svg" xmlns:xlink="http://www.w3.org/1999/xlink" xml:space="preserve" xmlns:serif="http://www.serif.com/" style="fill-rule:evenodd;clip-rule:evenodd;stroke-linejoin:round;stroke-miterlimit:2;"><path d="M38.988,44.494c0,-1.302 1.057,-2.36 2.36,-2.36c1.302,0 2.36,1.058 2.36,2.36c-0,1.304 -1.058,2.36 -2.36,2.36c-1.303,-0 -2.36,-1.056 -2.36,-2.36Zm14.158,0.787l-3.962,6.292l-3.903,-3.083l-6.293,9.376l22.024,-0l-7.866,-12.585Zm12.585,-6.293l0,22.024l-31.462,-0l-0,-22.024l31.462,0Zm3.146,-3.146l-37.754,0l-0,28.316l37.754,-0l0,-28.316Z" style="fill:#323232;fill-rule:nonzero;"/></svg>